<svg xmlns="http://www.w3.org/2000/svg" width="145.83" height="11.764" viewBox="0 0 145.83 9.62"><path d="M4.63 9.4c-1.1.5-1.9 1.7-3.4.9-1.4-.7-1.4-2.7-1-4 .4-1.3 1.4-2.5 2.7-3.1.7-.3 1.5-.3 2.3-.1.6.2.7.3 1.3.2.5-.1.9-.4.8.2-.2.8-.4 1.7-.6 2.5-.1.6-.3 1.3-.4 1.9-.1.4-.3 1-.1 1.5.2.5 1.1.3 1.5.1-.1.6-.7.8-1.3.9-.9.2-1.8-.1-1.8-1zm1-4.7c0-.8-.5-1.3-1.3-1.3-1 0-1.8.9-2.2 1.8-.6 1.1-1.3 4.9 1 4.5 2.1-.4 2.1-3.3 2.5-5zm8.9 2.3c.2 1.3 1.1 1.8 2.3 1.8 1 0 2.6-.3 2.3-1.7-.2-.9-1.7-1-2.4-1.2-1-.2-2.2-.4-3-1-2.2-1.5-.9-4.8 1.3-5.5 2.5-.8 5.9.2 6 3.3h-2.1s-.5-1.1-.7-1.3c-.6-.4-1.5-.5-2.2-.3-1.5.3-1.7 1.9-.2 2.3.9.3 1.8.5 2.7.7 1.2.3 2.5.8 2.8 2.1.4 1.5-.3 3-1.7 3.8-2.6 1.4-7.2.4-7.2-3.1.6.1 1.3.1 2.1.1z" fill="#303030"/><path d="M27.13 2.5c1.4.6 2 2.1 2.1 3.5 0 .3.2.9-.2.9h-5.6c.1 1.6 2.1 2.8 3.3 1.5.4-.5.5-.4 1.1-.4h1.3c-.2 1.6-2 2.5-3.5 2.6-1.7.1-3.5-.7-4.1-2.4-.5-1.5-.4-3.5.7-4.8 1.2-1.3 3.3-1.6 4.9-.9.6.3-.5-.2 0 0zm-3.1 1.8c-.3.3-.5.8-.6 1.2h3.6c-.1-1.4-1.9-2.3-3-1.2zm12-1.5c1.1.9.8 2.7.8 4v2.3c0 .2.1 1.1 0 1.3-.2.2-1.4 0-1.7 0-.6 0-.4 0-.4-.6V5.7c0-.7-.1-1.4-.8-1.7-1.4-.4-2.2.8-2.2 2v3.7c0 .5.2.6-.3.6h-1.8V2.5c0-.4 1.1-.2 1.4-.2h.6v1.1c.9-1.3 2.9-1.8 4.4-.6.5.4-.6-.4 0 0zm3.5 5c.1 1 .8 1.2 1.7 1.2.6 0 2.1-.6 1.1-1.3-1.3-.8-3.5-.4-4.4-1.9-1-1.8.7-3.5 2.4-3.7 2-.2 4 .4 4.2 2.6h-1.6c-.4 0-.4.1-.5-.2-.1-.5-.6-.7-1-.8-.5-.1-1.1-.1-1.4.3-.3.3-.1.8.3.9 1 .4 2.1.4 3.1.8 2.3 1 1.8 4-.5 4.6-2.1.6-5.3.1-5.3-2.6.5.1 1.2.1 1.9.1zm8.2-6.4h-2.1s-.2-1.8 0-1.9c.2-.2 1.7 0 2.1 0v1.9zm-2.1.9c.3 0 2.1-.1 2.1.1v6.1c0 .3.2 1.7 0 1.9-.2.2-2.1 0-2.1-.1v-8zm10 7.1c-1.3 1.6-4.3 1.7-5.8.4-1.7-1.6-1.8-4.6-.3-6.4 1.3-1.6 4.3-1.7 5.8-.4 1.7 1.6 1.7 4.6.3 6.4-.7.8.7-.9 0 0zm-1.7-1.2c.7-.9.7-2.5.1-3.5s-2.2-1.2-2.9-.2c-.7.9-.7 2.5-.1 3.5s2.2 1.2 2.9.2z" fill="#303030"/><path d="M57.53-.5h1.8c.5 0 .5-.1.5.3v8.1c0 .1-.1.4.1.4h4c.2 0 1.2-.1 1.3 0 .2.2 0 1.4 0 1.7 0 .3-.3.2-.6.2h-7c-.1-3.5-.1-7.1-.1-10.7z" fill="#7aba20"/><path d="M68.93 5.5c.6-.1 1.8-.4 1.1-1.3-.4-.5-1.8-.5-2.3 0-.5.6-.1.7-.9.7h-1.4c.2-2.7 3.1-3.3 5.3-2.5 1.8.6 1.6 2.3 1.6 3.8v2.9c0 .2 0 .4.1.6.1.1.3.2.3.3 0 .4-.9.2-1.3.2-.9 0-1.1.1-1.1-.9-1.5 1.7-5 1.7-5-1.2-.1-2.1 1.9-2.4 3.6-2.6zm1.3.9c-.7.5-3.9.5-2.7 2.2.5.8 2 .3 2.4-.4.4-.4.3-1.1.3-1.8zm10-3.1c1.2 1.6 1.2 4.1.2 5.8-1.1 1.8-3.7 2-5 .2v1h-1.4c-.8 0-.7 0-.7-.7V.2c0-.8 0-.6.8-.6.2 0 1.1-.1 1.2 0 .1.1 0 .9 0 1.1v2.8c1.2-1.7 3.7-1.7 4.9-.2zm-1.8 4.9c.6-.9.6-2.4.1-3.4s-2.1-1.1-2.7-.2c-.7.9-.6 2.4-.2 3.3.6 1.1 2.1 1.3 2.8.3z" fill="#7aba20"/><path d="M83.43 7.8c.1 1 .8 1.2 1.7 1.2.6 0 2.1-.6 1.1-1.3-1.3-.8-3.5-.4-4.4-1.9-1-1.8.7-3.5 2.4-3.7 2-.2 4 .4 4.2 2.6h-1.6c-.4 0-.4.1-.5-.2-.1-.5-.6-.7-1-.8-.5-.1-1.1-.1-1.4.3-.3.3-.1.8.3.9 1 .4 2.1.4 3.1.8 2.3 1 1.8 4-.5 4.6-2.1.6-5.3.1-5.3-2.6.5.1 1.2.1 1.9.1z" fill="#7aba20"/><path d="M101.63 2c0 1.8-1.5 3.1-3.2 3.6-.2 0-2.6.1-2.6.2-.2.8-.4 1.7-.6 2.5-.1.2-.1.5-.2.8-.1.8.8.7 1.3.8-.1.4 0 .5-.4.5h-4.2c.1-.3 0-.5.3-.5.4 0 .9 0 1.2-.4.2-.2.2-.6.3-.8.2-1 .5-2.1.7-3.1.3-1.1.5-2.3.8-3.4.1-.2.1-.5.2-.7.2-.8-.6-.9-1.2-1 .1-.6.2-.5.9-.5h2.4c1.6-.1 4.3-.2 4.3 2zm-2.3 2c.8-1.2.8-3.3-1-3.5-.5-.1-1.2-.3-1.4.3-.3 1.4-.7 2.9-1 4.3 1.3 0 2.6 0 3.4-1.1.2-.3-.3.4 0 0zm8.8.1c0 .6-.3 1.3-1 1.3-1.1 0-.7-1.1-.5-1.7-.7 0-2.1.8-2.2 1.5-.2.8-.4 1.6-.5 2.4-.2.8-.4 1.7-.6 2.5-.1.5-1 .2-1.4.2.3-1.2.5-2.4.8-3.6.1-.5.2-.9.3-1.4.3-1.3 0-1.7-1.4-1.4.2-.7.7-.8 1.4-.9 1-.2 1.6.2 1.6 1.2.6-.4 1.2-1.2 2-1.3.9-.1 1.5.4 1.5 1.2zm7.5 1.7c0 1.9-1.1 4-3.1 4.6-2 .6-4-.5-4-2.7 0-2 1.1-3.9 3.1-4.5 2.1-.7 4 .4 4 2.6zm-1.5-.3c0-1.5-1.1-2.8-2.6-1.7-1.2.8-1.5 2.7-1.5 4.1 0 1.5 1.1 2.9 2.6 1.7 1.2-.9 1.5-2.7 1.5-4.1zm7.2 3.8c-1 .5-1.6 1.5-2.9 1.1-1.4-.3-1.8-1.9-1.7-3.2.2-2.8 3.2-5.6 6-3.9.2-.7.3-1.4.5-2.1.1-.3.2-.6.2-.9 0-.8-.9-.7-1.4-.7 0-.7.6-.5 1.1-.5.3 0 1.7-.3 2-.1.3.3-.5 2.6-.6 3-.4 1.6-.8 3.3-1.1 4.9-.1.3-.2.6-.2 1-.1.4-.4 1.3 0 1.6.3.3 1 .1 1.4 0-.2.7-.7.8-1.4.9-1.1.2-1.9-.1-1.9-1.1zm1-4.6c-.1-.8-.9-1.3-1.7-1.2-.9.1-1.6 1-1.9 1.8-.5 1.1-1.3 4.9 1.1 4.5 2.2-.5 2.1-3.4 2.5-5.1zm7.6 4.6c-1 .6-2.1 1.7-3.4 1.1-1-.5-.8-1.8-.5-2.6.2-.7.3-1.4.5-2.1.1-.4.3-1 .1-1.5-.2-.5-1.1-.2-1.4-.1.3-1.3 3.2-1.5 2.9.4-.1 1-.5 2.1-.7 3.1-.1.6-.4 1.6.2 2 .6.4 2.3-.2 2.5-.9.2-1 .5-2 .7-3 .1-.6.3-1.1.4-1.7 0-.1.1-.6.2-.8.1-.1 1.2-.1 1.3-.1.2.2 0 .6-.1.8-.3 1.2-.5 2.4-.8 3.6-.1.4-.2.9-.3 1.3-.1 1 .8 1 1.5.7-.2.7-.7.8-1.4.9-.8.2-1.7-.1-1.7-1.1zm6.7 1.2c-3.9 0-3.2-5.5-.7-7 1.1-.7 3.4-1 4 .5.7 1.9-2 2.2-1.6.7l.3-.9c-.1-.3-.6-.4-.9-.4-.8 0-1.3.5-1.7 1.2-.7 1.2-1.2 3.3-.3 4.5 1.1 1.4 2.8.2 3.6-.8l.4.3c-.2.4-.5.7-.8 1-.6.5-1.4.9-2.3.9zm5.8 0c-2 0-1.2-2.1-.9-3.3.3-1.1.5-2.3.8-3.4h-1.3c.1-.6.1-.7.7-.7s.7.1.9-.4c.1-.6.3-1.1.4-1.7 0-.1 1.2 0 1.3 0-.2.7-.3 1.4-.5 2.1h2c0 .2 0 .7-.2.7h-1.5c-.2 0-.4-.1-.5.1l-.3 1.2-.6 2.7c-.1.4-.2.9-.2 1.3.2.8 1.4.6 2 .4-.1.4 0 .5-.5.7-.4.1-1 .3-1.6.3z" fill="#303030"/></svg>